<svg width="32" height="32" viewBox="0 0 32 32" fill="none" xmlns="http://www.w3.org/2000/svg">
<g clip-path="url(#clip0_315_309)">
<path d="M32 16C32 7.16344 24.8366 0 16 0C7.16344 0 0 7.16344 0 16C0 24.8366 7.16344 32 16 32C24.8366 32 32 24.8366 32 16Z" fill="#D9D9D9"/>
<path d="M17.2758 25.0311V16.4666H20.1507L20.5818 13.1288H17.2758V10.9977C17.2758 10.0314 17.5443 9.37285 18.9301 9.37285H20.6975V6.38839C19.842 6.29788 18.9822 6.25404 18.1219 6.25707C15.5735 6.25707 13.829 7.81247 13.829 10.6691V13.1288H10.9468V16.4666H13.829V25.0311H17.2758Z" fill="#0F0F0F"/>
</g>
<defs>
<clipPath id="clip0_315_309">
<rect width="32" height="32" fill="white"/>
</clipPath>
</defs>
</svg>
