<svg width="32" height="32" viewBox="0 0 32 32" fill="none" xmlns="http://www.w3.org/2000/svg">
<g clip-path="url(#clip0_315_311)">
<path d="M16 32.0001C24.8366 32.0001 32 24.8366 32 16.0001C32 7.1635 24.8366 0 16 0C7.16344 0 0 7.1635 0 16.0001C0 24.8366 7.16344 32.0001 16 32.0001Z" fill="#D9D9D9"/>
<path d="M16.0018 11.1911L7.99467 11.2098C7.99407 11.2098 7.99348 11.2098 7.99289 11.2098C7.96413 11.2049 7.93495 11.2028 7.90578 11.2036C7.78805 11.2055 7.67588 11.254 7.59389 11.3385C7.5119 11.4229 7.46678 11.5365 7.46844 11.6542V21.7787C7.46844 21.8966 7.51527 22.0096 7.59862 22.093C7.68197 22.1763 7.79501 22.2231 7.91289 22.2231H24.0827C24.2005 22.2231 24.3136 22.1763 24.3969 22.093C24.4803 22.0096 24.5271 21.8966 24.5271 21.7787V11.7111C24.5365 11.6481 24.5323 11.5838 24.5147 11.5225C24.4971 11.4613 24.4665 11.4045 24.425 11.3561C24.3835 11.3077 24.3321 11.2688 24.2743 11.242C24.2164 11.2153 24.1535 11.2012 24.0898 11.2009L16.0018 11.1911ZM16.0018 12.08H16.0036L22.5449 12.0889L16.0018 16.1822L9.45955 12.0978L16.0018 12.08ZM23.6382 12.4516V21.3334H8.35733V12.4551L15.7671 17.0836C15.8377 17.1277 15.9194 17.1511 16.0027 17.1511C16.086 17.1511 16.1676 17.1277 16.2382 17.0836L23.6382 12.4516Z" fill="#0F0F0F"/>
</g>
<defs>
<clipPath id="clip0_315_311">
<rect width="32" height="32" fill="white"/>
</clipPath>
</defs>
</svg>
