<svg width="32" height="32" viewBox="0 0 32 32" fill="none" xmlns="http://www.w3.org/2000/svg">
<g clip-path="url(#clip0_315_310)">
<path fill-rule="evenodd" clip-rule="evenodd" d="M16 0C24.8369 0 32 7.16313 32 16C32 24.8369 24.8369 32 16 32C7.16313 32 0 24.8369 0 16C0 7.16313 7.16313 0 16 0Z" fill="#D9D9D9"/>
<path fill-rule="evenodd" clip-rule="evenodd" d="M19.5938 6.62563C19.5944 6.91188 19.6788 11.0525 24.0231 11.3106C24.0231 12.5044 24.0244 13.37 24.0244 14.5094C23.6956 14.5281 21.1644 14.3444 19.5888 12.9394L19.5838 19.1669C19.6438 23.4894 16.4631 26.1194 12.305 25.2106C5.13563 23.0662 7.51813 12.4331 14.7169 13.5706C14.7169 17.0038 14.7188 13.57 14.7188 17.0037C11.745 16.5662 10.75 19.04 11.5406 20.8119C12.2594 22.4244 15.2206 22.7738 16.2538 20.4988C16.3706 20.0538 16.4288 19.5456 16.4288 18.9756V6.61L19.5938 6.62563Z" fill="#0F0F0F"/>
</g>
<defs>
<clipPath id="clip0_315_310">
<rect width="32" height="32" fill="white"/>
</clipPath>
</defs>
</svg>
